# xmcd
#
# Track frame offsets:
#	183
#	15308
#	29333
#	43558
#	57875
#	72315
#	84225
#	98228
#	111325
#	125908
#	137755
#	150413
#	163135
#	174078
#	185893
#	197885
#	209980
#	221540
#	233175
#	247300
#	259515
#	272048
#	284693
#
# Disc length: 3958 seconds
#
# Revision: 0
# Processed by: cddbd v1.5.1PL0 Copyright (c) Steve Scherf et al.
# Submitted via: EasyCDDAExtractor 7.5.2.1
#
DISCID=5f0f7417
DTITLE=Blind Boy Fuller - 1935 - 1940
DYEAR=1900
DGENRE=Blues
TTITLE0=I'm climbin' on top of the hill
TTITLE1=Ain't it a crying shame ?
TTITLE2=Rag, Mama, rag
TTITLE3=Log cabin blues
TTITLE4=(I got a woman crazy for me) She's funny that way
TTITLE5=Stingy Mama
TTITLE6=Some day you're gonna be sorry
TTITLE7=Walking and looking blues
TTITLE8=Working man blues
TTITLE9=Steel hearted woman
TTITLE10=Ain't no gettin' along
TTITLE11=New Louise Louise blues
TTITLE12=Mistreated, you're going to be sorry
TTITLE13=Shaggy like a bear
TTITLE14=Looking for my woman
TTITLE15=I'm going to move (to the edge of town)
TTITLE16=Long time trucker
TTITLE17=Blacksnakin' jiver
TTITLE18=I'm a stanger here
TTITLE19=I want some of your pie
TTITLE20=Passenger train woman
TTITLE21=Somebody's been talkin'
TTITLE22=Crooked woman blues
EXTD=
EXTT0=
EXTT1=
EXTT2=
EXTT3=
EXTT4=
EXTT5=
EXTT6=
EXTT7=
EXTT8=
EXTT9=
EXTT10=
EXTT11=
EXTT12=
EXTT13=
EXTT14=
EXTT15=
EXTT16=
EXTT17=
EXTT18=
EXTT19=
EXTT20=
EXTT21=
EXTT22=
PLAYORDER=
